# xmcd
#
# Track frame offsets:
#	150
#	14815
#	30105
#	48650
#	73380
#	91175
#	106482
#	124605
#	141847
#	159392
#	184817
#	198902
#	216120
#	229020
#
# Disc length: 3246 seconds
#
# Revision: 2
# Processed by: cddbd v1.4PL0 Copyright (c) Steve Scherf et al.
# Submitted via: AudioConverter v4.05 Copyright (c) Dennis Rebentrost
#
DISCID=c20cac0e
DTITLE=Saskia en Serge - Sterker dan ooit
DYEAR=1900
DGENRE=
TTITLE0=Als ik kijk in je donkere ogen
TTITLE1=Daar was jij
TTITLE2=Mijn eiland
TTITLE3=The carpenters medley
TTITLE4=Wat moet ik doen
TTITLE5=Pilsje in de zon
TTITLE6=Elke dag een lach
TTITLE7=Zonder liefde
TTITLE8=Mevrouw Robinson
TTITLE9=Country hit medley
TTITLE10=Kom nog eens langs
TTITLE11=Jij zegt niets
TTITLE12=Elke keer
TTITLE13=Sterker dan ooit
EXTD=
EXTT0=
EXTT1=
EXTT2=
EXTT3=Zing\nLieve post\nJambalaya\nTop van de Wereld
EXTT4=
EXTT5=
EXTT6=
EXTT7=
EXTT8=
EXTT9=Gebroken harten\nBreng me thuis\nC'est la vie, da's 't leven\nZo'n cowboy
EXTT10=
EXTT11=
EXTT12=
EXTT13=
PLAYORDER=
